<svg xmlns="http://www.w3.org/2000/svg" xmlns:xlink="http://www.w3.org/1999/xlink" viewBox="0 0 154.68 158.47"><defs><style>.cls-1{fill:none;}.cls-2{clip-path:url(#clip-path);}.cls-3,.cls-7{fill:#f7fff7;}.cls-3{opacity:0.67;}.cls-4{fill:#e6e6e6;}.cls-5{opacity:0.5;}.cls-6{fill:#fff;}.cls-7{opacity:0.57;}</style><clipPath id="clip-path"><path class="cls-1" d="M141.22,75a71.15,71.15,0,1,0-57.71,82.42A71.13,71.13,0,0,0,141.22,75Z"/></clipPath></defs><title>ball</title><g id="Layer_2" data-name="Layer 2"><g id="Layer_1-2" data-name="Layer 1"><g class="cls-2"><path class="cls-3" d="M68.05,70.7c38.69-6.82,71.83-3.33,73.17,4.26A71.15,71.15,0,1,0,1.09,99.67c-1.33-7.59,28.27-22.15,67-29"/><path class="cls-4" d="M141.22,75a71.15,71.15,0,1,0-57.71,82.42A71.13,71.13,0,0,0,141.22,75Z"/><g class="cls-5"><path class="cls-6" d="M145.06,104.13c19.07-26.74,8.9-66.69-22.71-89.23S49.66-4.22,30.59,22.52s-8.9,66.69,22.71,89.23,72.69,19.13,91.76-7.62"/></g><path class="cls-6" d="M139.25,75.57c13-18.22,5.66-45.72-16.36-61.42S72.48.49,59.49,18.71,53.82,64.42,75.85,80.13s50.41,13.66,63.4-4.56"/><path class="cls-7" d="M68.05,70.7c38.69-6.82,71.83-3.33,73.17,4.26A71.15,71.15,0,1,0,1.09,99.67c-1.33-7.59,28.27-22.15,67-29"/></g></g></g></svg>