<svg xmlns="http://www.w3.org/2000/svg" xmlns:xlink="http://www.w3.org/1999/xlink" viewBox="0 0 205.25 205.25"><defs><style>.cls-1{fill:none;}.cls-2{opacity:0.2;}.cls-3{fill:#ff4a1d;}.cls-4{fill:#004ede;}.cls-5{fill:url(#New_Pattern);}.cls-6{fill:#fff;}</style><pattern id="New_Pattern" data-name="New Pattern" width="41.12" height="41.12" patternUnits="userSpaceOnUse" viewBox="0 0 41.12 41.12"><rect class="cls-1" width="41.12" height="41.12"/><path class="cls-2" d="M39.63,19.12a4,4,0,1,1,4-4,4,4,0,0,1-4,4"/><path class="cls-2" d="M39.63,41.12a4,4,0,1,1,4-4,4,4,0,0,1-4,4"/><path class="cls-2" d="M13.6,4a4,4,0,1,1-4-4,4,4,0,0,1,4,4"/><path class="cls-2" d="M13.6,26.12a4,4,0,1,1-4-4,4,4,0,0,1,4,4"/><path class="cls-2" d="M20.6,19.12a4,4,0,1,1,4-4,4,4,0,0,1-4,4"/><path class="cls-2" d="M-1.48,19.12a4,4,0,0,1-4-4,4,4,0,0,1,4-4,4,4,0,0,1,4,4,4,4,0,0,1-4,4"/><path class="cls-2" d="M35.6,4a4,4,0,1,1-4-4,4,4,0,0,1,4,4"/><path class="cls-2" d="M35.6,26.12a4,4,0,1,1-4-4,4,4,0,0,1,4,4"/><path class="cls-2" d="M20.6,41.12a4,4,0,1,1,4-4,4,4,0,0,1-4,4"/><path class="cls-2" d="M-1.48,41.12a4,4,0,0,1-4-4,4,4,0,0,1,4-4,4,4,0,0,1,4,4,4,4,0,0,1-4,4"/></pattern></defs><title>center</title><g id="Layer_2" data-name="Layer 2"><g id="Layer_1-2" data-name="Layer 1"><polygon class="cls-3" points="102.63 22.63 22.63 102.63 102.63 182.63 102.63 22.63"/><polygon class="cls-4" points="102.63 182.63 182.63 102.63 102.63 22.63 102.63 182.63"/><polygon class="cls-5" points="11.31 102.63 102.63 11.31 193.94 102.63 102.63 193.94 11.31 102.63"/><path class="cls-6" d="M102.63,22.63l80,80-80,80-80-80,80-80m0-22.63L91.31,11.31l-80,80L0,102.63l11.31,11.31,80,80,11.32,11.31,11.31-11.31,80-80,11.31-11.31L193.94,91.31l-80-80L102.63,0Z"/></g></g></svg>